<svg xmlns="http://www.w3.org/2000/svg" viewBox="0 0 35 35"><path d="M1 1h7v7h-7zM11 1h1v1h-1zM13 1h2v1h3v1h-1v1h-1v-1h-1v1h-1v-2h-1zM19 1h6v1h-1v1h-1v1h-2v-2h-2zM27 1h7v7h-7zM2 2v5h5v-5zM12 2h1v1h-1zM28 2v5h5v-5zM3 3h3v3h-3zM9 3h1v2h2v3h-1v-2h-1v3h-1zM11 3h1v1h-1zM25 3h1v1h-1zM29 3h3v3h-3zM12 4h1v1h-1zM15 4h1v1h-1zM17 4h2v1h-2zM23 4h1v1h-1zM13 5h2v1h-1v2h-1zM16 5h1v1h3v4h1v-4h-1v-1h3v1h1v2h-1v-1h-1v1h1v1h-1v2h-3v-1h-1v-1h1v-2h-1v1h-1v-1h-1v1h1v2h-3v1h-1v-1h-1v-2h1v1h2v-3h1zM24 5h1v1h-1zM25 7h1v3h-1v-1h-1v-1h1zM1 9h1v1h-1zM3 9h5v1h-1v1h1v-1h1v1h1v1h-4v1h-2v1h-2v1h-1v-4h1v1h1zM10 9h1v1h-1zM23 9h1v1h-1zM27 9h5v2h1v1h-1v1h-1v1h1v-1h1v1h1v1h-1v1h-1v1h-1v-2h-1v-1h-2v-1h1v-2h1v1h1v-1h-1v-1h-1v1h-1v2h-2v-1h-1v-1h2zM4 10v2h1v-2zM17 10h1v3h-1v1h2v-2h1v1h1v1h2v2h1v1h-2v-2h-3v1h-1v-1h-4v-1h2v-1h-1v-1h1v-1h1zM24 10h1v1h-1zM33 10h1v1h-1zM11 11h1v1h-1zM22 11h1v1h1v2h-1v-1h-1zM10 12h1v3h3v1h1v1h-1v1h-1v-2h-1v1h-1v1h2v2h-2v-1h-1v1h1v1h-2v2h-1v-1h-1v-1h1v-1h-1v1h-1v-1h-1v1h-1v1h-1v-1h-1v-1h-1v-1h1v-1h1v2h1v-1h1v-3h1v-3h2v1h-1v1h1v1h-1v1h1v1h-2v1h2v-1h1v-2h1zM12 12h1v1h1v1h-2zM25 13h1v1h-1zM8 14h1v1h-1zM24 14h1v1h-1zM27 14h1v3h-1v1h-2v-2h1v-1h1zM2 15h1v1h-1zM4 15h1v1h-1zM3 16h1v2h-1zM17 16h1v1h1v1h1v-1h1v1h1v1h-3v1h1v1h-2v1h-1v-2h1v-1h-1zM19 16h1v1h-1zM29 16h1v2h-1v1h1v1h1v-1h-1v-1h3v-1h1v2h-1v1h-1v1h-1v2h2v1h-1v1h-2v-3h-2v-1h-2v1h-1v-2h1v-1h1v-1h1v-1h1zM15 17h1v1h-1zM14 18h1v2h1v1h-1v1h2v1h1v1h-1v2h-1v1h-2v-1h1v-1h1v-1h-1v-1h-2v-2h1zM24 18h1v1h-1zM16 19h1v1h-1zM23 19h1v3h-1v-1h-2v-1h2zM33 20h1v3h-1v-1h-1v-1h1zM5 21h1v1h1v1h1v1h-1v1h-1v-2h-1zM1 22h1v4h-1zM11 22h1v1h-1zM18 22h4v2h-1v-1h-1v1h-1v-1h-1zM24 22h1v1h-1zM27 22h1v1h-1zM3 23h2v1h-1v1h1v1h-2zM10 23h1v1h2v1h1v1h-1v1h1v1h2v1h-1v3h1v2h-2v-2h-2v2h-1v-1h-1v-1h-1v-4h3v1h1v-1h-1v-1h-1v-1h1v-1h-2zM23 23h1v1h-1zM26 23h1v1h-1zM14 24h1v1h-1zM20 24h1v1h-1zM22 24h1v1h-1zM24 24h1v1h5v3h1v-2h1v1h1v2h-2v1h3v1h-2v2h-3v-1h2v-1h-2v-1h-2v1h2v1h-4v-1h1v-1h-1v-1h-1v-1h-1v-1h1v-1h-1v-1h1zM33 24h1v1h-1zM7 25h1v1h-1zM9 25h1v2h-1zM18 25h1v1h-1zM21 25h1v3h-1v-1h-1v1h-1v-2h2zM32 25h1v1h-1zM17 26h1v3h-1v-1h-1v-1h1zM26 26v3h3v-3zM33 26h1v1h-1zM1 27h7v7h-7zM27 27h1v1h-1zM2 28v5h5v-5zM22 28h1v1h-1zM3 29h3v3h-3zM19 29h3v1h1v1h-1v1h1v-1h1v3h-1v-1h-2v-2h-1v-1h-1zM10 30v1h2v-1zM16 30h3v2h-1v-1h-2zM24 30h1v1h-1zM17 32h1v1h-1zM9 33h1v1h-1zM18 33h3v1h-3zM25 33h4v1h-4zM32 33h1v1h-1z"/></svg>