<svg xmlns="http://www.w3.org/2000/svg" viewBox="0 0 35 35"><path d="M1 1h7v7h-7zM9 1h1v1h1v-1h2v2h-1v1h-1v1h1v-1h2v1h-1v1h1v2h-1v-1h-1v-1h-3v-1h1v-1h-1zM14 1h2v2h1v-2h1v4h1v-4h1v1h1v1h1v-1h2v1h-1v3h-1v-2h-2v1h1v1h-1v4h1v1h-3v-1h-1v-1h-1v-1h1v-1h-1v1h-1v-2h1v-1h-1v-1h-1zM27 1h7v7h-7zM2 2v5h5v-5zM28 2v5h5v-5zM3 3h3v3h-3zM25 3h1v3h-1zM29 3h3v3h-3zM14 5h1v1h-1zM18 6v3h1v-3zM21 6h1v2h-1zM24 6h1v1h-1zM9 7h1v1h-1zM11 7h1v2h-2v-1h1zM23 7h1v1h-1zM25 7h1v2h1v1h-2v-1h-1v-1h1zM14 8h1v1h-1zM1 9h1v1h-1zM4 9h6v5h-4v3h2v1h-1v1h2v1h-3v-1h-4v1h-1v-3h1v1h1v-1h1v1h1v-5h1v-1h1v1h1v-1h1v-2h-2v1h-1v1h-1v1h-1v1h-1v-4h1v1h1v-1h-1zM12 9h2v1h-1v1h-1zM15 9h1v1h1v1h1v1h-2v-1h-1v3h-1v-1h-1v-2h1v-1h1zM21 9h1v1h-1zM29 9h1v1h1v-1h3v1h-2v3h-1v-1h-2zM23 10h2v1h3v1h-3v1h1v1h1v1h-3v-4h-1zM7 11h1v1h-1zM11 11h1v2h1v1h1v2h-1v-1h-1v-1h-1zM21 11h1v1h-1zM33 11h1v1h-1zM1 12h1v1h-1zM19 12h1v1h-1zM28 12h1v3h-1v-1h-1v-1h1zM16 13h1v1h-1zM18 13h1v1h1v1h-1v1h-1zM21 13h1v1h-1zM33 13h1v1h-1zM1 14h1v1h-1zM15 14h1v1h-1zM30 14h1v1h1v2h-2v-1h-1v-1h1zM2 15h2v1h-2zM7 15h2v1h-2zM10 15h2v2h-2zM16 15h1v1h-1zM20 15h1v1h1v2h2v1h1v1h-4v3h-1v-1h-1v-1h1v-1h-2v2h-1v-1h-1v1h-1v1h-1v1h-1v1h1v1h-2v-2h-2v-1h2v-1h2v-1h1v-2h1v-2h1v-1h1v2h-1v1h1v-1h3v-1h-2v-1h1zM22 15h2v1h-2zM27 15h1v1h-1zM14 16h1v3h-2v1h-2v2h-1v-3h1v-1h2v-1h1zM24 16h1v1h-1zM26 16h1v1h1v-1h1v1h1v2h-1v-1h-1v1h1v1h-1v1h-1v-3h-2v-1h1zM33 16h1v1h-1zM31 18h3v2h-1v-1h-1v1h1v1h-2v1h1v1h-1v1h-1v-1h-1v-1h1v-1h-1v-1h1v-1h1zM2 20h1v1h-1zM13 20h1v1h-1zM25 20h1v3h-1v1h-1v1h-1v-2h-1v-1h3zM1 21h1v1h1v-1h2v1h-1v1h-2v2h1v1h-2zM6 21h3v1h-2v1h1v1h-2zM28 21h1v1h-1zM33 21h1v1h-1zM18 22h1v1h1v1h-1v1h-1zM4 23h1v1h1v1h3v1h-5v-1h-1v-1h1zM26 23h2v1h-2zM32 23h2v1h-1v1h-2v-1h1zM9 24h1v1h-1zM15 24h2v1h-2zM20 24h1v1h-1zM28 24h2v4h1v-2h2v1h-1v1h2v5h-4v1h-2v-4h-1v1h-1v-1h-2v1h-1v-2h1v-3h1v-1h3zM17 25h1v1h2v1h-1v1h1v1h-1v1h-1v1h-1v-2h1v-2h-1v2h-2v3h-1v-3h-1v1h-1v1h-1v1h-1v-1h-1v-5h2v1h1v1h-2v1h2v-1h2v-1h1v-1h2zM33 25h1v1h-1zM26 26v3h3v-3zM1 27h7v7h-7zM20 27h3v1h-1v3h-1v1h-1v-1h-1v-1h1v-1h1v-1h-1zM27 27h1v1h-1zM2 28v5h5v-5zM3 29h3v3h-3zM30 29v1h-1v1h1v1h1v-2h2v-1zM12 31h1v1h-1zM16 31h1v1h-1zM24 31h2v1h-2zM21 32h1v1h-1zM23 32h1v1h-1zM9 33h3v1h-3zM13 33h2v1h-2zM16 33h5v1h-5zM24 33h2v1h-2z"/></svg>