<svg xmlns="http://www.w3.org/2000/svg" viewBox="0 0 35 35"><path d="M1 1h7v7h-7zM9 1h4v1h-2v1h1v1h2v1h1v-1h-1v-1h3v-2h3v1h1v1h1v-1h2v1h-1v3h-1v-1h-1v-1h-1v-1h-2v1h-1v1h-1v3h-1v-2h-1v2h1v1h-1v1h-2v-1h-1v1h-2v1h-1v-1h-1v1h1v1h-1v1h-2v-1h1v-2h-2v-1h6v-1h1v-1h-1v-1h-1v-1h1v-1h-1zM14 1h2v1h-2zM27 1h7v7h-7zM2 2v5h5v-5zM13 2h1v1h-1zM28 2v5h5v-5zM3 3h3v3h-3zM25 3h1v3h-1zM29 3h3v3h-3zM18 4h1v1h2v1h-1v2h1v-2h1v4h-1v-1h-1v1h1v1h-1v1h-1v-1h-1v-1h-1v1h1v1h-2v-1h-1v3h-1v1h-1v2h-1v-4h-1v-1h-1v1h1v1h-2v-3h2v-1h1v1h2v-1h1v-1h2v-2h1v2h1v-3h-2v-1h1zM12 6v2h1v-2zM24 6h1v1h-1zM9 7h1v1h-1zM23 7h1v1h-1zM25 7h1v2h1v1h-2v-1h-1v-1h1zM1 9h1v1h-1zM29 9h1v1h1v-1h3v1h-2v3h-1v-1h-2zM23 10h2v1h3v1h-3v1h1v1h1v1h-3v-2h-1v-1h-2v-1h2zM4 11h1v1h-1zM33 11h1v1h-1zM1 12h1v1h3v2h-1v-1h-1v1h-1v-1h-1zM13 12v1h1v-1zM18 12h1v1h-1zM28 12h1v3h-1v-1h-1v-1h1zM7 13h1v1h-1zM16 13h2v1h2v1h-1v1h-1v-1h-1v1h-1v1h-1v-1h-1v-1h1v-1h1zM21 13h1v1h-1zM33 13h1v1h-1zM8 14h1v1h2v1h-2v1h3v1h1v1h-2v1h-1v1h-2v-1h-2v-1h2v-1h-3v2h-1v1h-1v-1h-1v1h1v1h-1v3h1v-2h1v1h2v-3h2v1h-1v1h1v-1h2v2h-3v1h-2v1h-4v-11h1v2h1v-1h2v-1h1v1h1v1h1v-1h-1v-1h1zM30 14h1v1h1v2h-2v-1h-1v-1h1zM20 15h1v1h-1zM22 15h2v1h-2zM27 15h1v1h-1zM17 16h1v2h-1zM19 16h1v1h-1zM21 16h1v3h1v-1h1v1h1v1h-1v1h-1v-1h-2v1h1v1h-1v1h-1v-4h-1v1h-1v1h1v2h1v1h-1v1h-1v-3h-1v-1h-3v-1h2v-1h-1v-1h2v1h1v-1h3zM24 16h1v1h-1zM26 16h1v1h1v-1h1v1h1v2h-1v-1h-1v1h1v1h-1v1h-1v-3h-2v-1h1zM33 16h1v1h-1zM2 18v1h2v-1zM31 18h3v2h-1v-1h-1v1h1v1h-2v1h1v1h-1v1h-1v-1h-1v-1h1v-1h-1v-1h1v-1h1zM25 20h1v3h-1v1h-1v1h-1v-2h1v-1h1zM4 21h1v2h-1zM12 21h1v1h-1zM28 21h1v1h-1zM33 21h1v1h-1zM11 22h1v2h-1zM14 22h1v1h-1zM16 22h1v3h1v2h-1v2h-1v-2h-2v2h2v1h1v2h-1v2h-1v-1h-1v-1h1v-2h-1v2h-1v1h-1v1h-1v-1h-1v-2h1v1h1v-1h1v-2h-3v2h-1v-5h-2v-1h4v1h-1v2h1v-1h2v-1h-1v-1h2v1h2v-1h-2v-1h1v-1h1zM22 22h1v1h-1zM13 23h1v1h-1zM26 23h2v1h-2zM32 23h2v1h-1v1h-2v-1h1zM21 24h1v1h-1zM28 24h2v4h1v-2h2v1h-1v1h2v5h-4v1h-2v-4h-1v1h-1v-1h-2v1h-1v-3h1v-2h1v-1h3zM19 26h1v1h3v1h-1v2h-1v4h-4v-2h1v1h2v-2h-1v-3h-1v-1h1zM26 26v3h3v-3zM1 27h7v7h-7zM27 27h1v1h-1zM2 28v5h5v-5zM20 28v1h1v-1zM3 29h3v3h-3zM17 29h1v1h-1zM30 29v1h-1v1h1v1h1v-2h2v-1zM24 31h2v1h-2zM23 32h1v1h-1zM9 33h1v1h-1zM13 33h1v1h-1zM24 33h2v1h-2z"/></svg>