<svg xmlns="http://www.w3.org/2000/svg" viewBox="0 0 35 35"><path d="M1 1h7v7h-7zM10 1h2v1h-1v1h1v-1h1v1h1v-2h1v1h3v-1h4v1h1v1h1v2h-1v-1h-1v1h-1v-3h-2v1h1v1h-2v-1h-1v1h-1v-1h-1v1h-1v1h-1v-1h-3v1h3v1h-1v3h1v2h1v1h-1v1h-2v1h-1v-2h1v-3h-2v-6h1zM23 1h2v1h-2zM27 1h7v7h-7zM2 2v5h5v-5zM28 2v5h5v-5zM3 3h3v3h-3zM25 3h1v2h-1zM29 3h3v3h-3zM15 4h1v1h-1zM17 4h1v1h-1zM14 5h1v1h-1zM16 5h1v1h2v-1h1v5h1v-1h1v1h1v1h1v1h-1v4h2v1h-4v1h1v1h-3v1h1v1h-2v1h-1v-2h1v-1h-1v-3h1v1h1v1h1v-1h-1v-1h1v-1h1v1h1v-1h-1v-1h1v-3h-2v1h-1v-2h-1v-1h1v-2h-1v1h-1v-1h-1v1h1v2h-3v-1h1v-3h1zM22 5h1v1h1v2h-1v-1h-1v1h-1v-2h1zM24 5h1v1h-1zM13 6h1v3h-1zM25 6h1v4h-1v-1h-1v-1h1zM10 7v1h1v-1zM22 8h1v1h-1zM1 9h1v1h-1zM3 9h5v1h-1v1h1v1h-1v1h1v-1h1v3h-1v-1h-2v1h-1v1h1v-1h2v1h-1v1h-2v1h-2v1h-1v-2h1v-1h1v-1h-1v-1h-1v-2h2v2h1v-1h1v-2h-4v-1h1zM23 9h1v1h-1zM27 9h5v2h1v1h-1v1h-1v1h1v-1h1v1h1v1h-1v1h-1v1h-1v-2h-1v-1h-2v-1h1v-2h1v1h1v-1h-1v-1h-1v1h-1v2h-2v-1h-1v-1h2zM9 10h1v2h-1zM17 10h1v3h-1v1h2v2h-1v-1h-4v1h-1v-1h-1v-1h1v-1h1v1h2v-1h-1v-1h1v-1h1zM24 10h1v1h-1zM33 10h1v1h-1zM1 11h1v1h-1zM19 13h2v1h-2zM1 14h1v1h-1zM24 14h1v1h-1zM27 14h1v3h-1v1h-2v-1h1v-2h1zM9 15h2v2h1v-1h1v2h-3v2h1v1h-1v1h2v2h-1v1h-2v-2h-1v-1h1v-1h-1v-1h-2v-1h-1v-1h2v1h2v-2h-1v-1h1zM1 16h1v1h-1zM15 16h1v1h-1zM29 16h1v2h-1v1h1v1h1v-1h-1v-1h3v-1h1v2h-1v1h-1v1h-1v2h2v1h-1v1h-2v-3h-2v-1h-2v1h-1v-2h1v-1h1v-1h1v-1h1zM7 17h1v1h-1zM14 17h1v2h-1zM24 18h1v1h-1zM4 19h1v3h-1v-1h-1v1h-1v-2h2zM13 19h1v1h-1zM15 19h2v1h-1v2h-1v1h-2v-1h-1v-1h3zM23 19h1v1h-1zM21 20h1v1h2v1h-3zM33 20h1v3h-1v-1h-1v-1h1zM7 21h1v1h-1zM1 22h1v4h-1zM3 22h1v2h2v1h2v1h-3v-1h-1v1h-1zM16 22h1v1h1v1h-1v2h-1v-2h-1v-1h1zM18 22h2v2h-1v-1h-1zM24 22h1v1h-1zM27 22h1v1h-1zM7 23h1v1h-1zM21 23h1v1h-1zM23 23h1v1h-1zM26 23h1v1h-1zM12 24h3v3h2v-1h1v3h-1v-1h-1v1h-1v2h-2v1h1v2h-3v-1h-1v-1h2v-1h-1v-1h3v-1h-2v-1h1v-1h-4v-1h2v-1h1v1h1v-1h-1zM22 24h1v1h-1zM24 24h1v1h5v3h1v-2h1v1h1v2h-2v1h1v3h-3v-1h2v-1h-2v-1h-2v1h2v1h-4v-1h1v-1h-1v-1h-2v1h2v1h-1v3h-1v-1h-2v1h-3v-1h2v-2h1v1h2v-1h-2v-1h1v-2h-1v-1h-1v1h-1v-2h2v-1h1v1h1v2h1v-2h-1v-1h1zM33 24h1v3h-1v-1h-1v-1h1zM18 25h1v1h-1zM26 26v3h3v-3zM1 27h7v7h-7zM27 27h1v1h-1zM2 28v5h5v-5zM9 28h1v4h-1zM3 29h3v3h-3zM19 29h2v1h-2zM16 30h3v2h-1v-1h-2zM33 30h1v1h-1zM15 31h1v1h-1zM17 32h1v1h-1zM9 33h1v1h-1zM25 33h4v1h-4zM32 33h1v1h-1z"/></svg>