<svg xmlns="http://www.w3.org/2000/svg" viewBox="0 0 35 35"><path d="M1 1h7v7h-7zM10 1h2v1h1v1h1v-2h1v1h3v-1h7v1h-3v1h2v2h1v1h-1v2h-1v-1h-1v1h-1v-2h1v-1h1v-1h-1v1h-1v-3h-2v1h1v1h-2v-1h-1v1h-1v-1h-1v1h-3v-1h-1v-1h-1zM27 1h7v7h-7zM2 2v5h5v-5zM28 2v5h5v-5zM3 3h3v3h-3zM9 3h1v2h1v1h1v-1h3v1h-1v2h-1v-1h-1v1h1v3h1v1h-1v1h-3v-1h2v-1h-2v1h-1v-2h2v-1h-2zM25 3h1v1h-1zM29 3h3v3h-3zM11 4h1v1h-1zM15 4h1v1h-1zM17 4h1v1h-1zM16 5h1v1h2v-1h1v5h1v-1h1v1h1v1h1v1h-1v4h1v1h-3v1h1v1h-3v1h1v1h-2v1h-1v-2h1v-1h-1v-3h1v1h1v1h1v-1h-1v-1h1v-1h1v1h1v-1h-1v-1h1v-3h-2v1h-1v-2h-1v-1h1v-2h-1v1h-1v-1h-1v1h1v2h-3v-1h1v-3h1zM10 7v1h1v-1zM25 7h1v3h-1v1h-1v-1h-1v-1h2zM22 8h1v1h-1zM1 9h1v1h1v-1h5v1h-1v1h-1v-1h-1v1h-4zM27 9h5v2h1v1h-1v1h-1v1h1v-1h1v1h1v1h-1v1h-1v1h-1v-2h-1v-1h-2v-1h1v-2h1v1h1v-1h-1v-1h-1v1h-1v2h-2v-1h-1v-1h2zM17 10h1v3h-1v1h2v2h-1v-1h-4v2h-2v-3h1v-1h1v1h2v-1h-1v-1h1v-1h1zM33 10h1v1h-1zM7 11h1v1h-1zM2 12h2v2h-1v1h-2v-2h1zM5 12h1v1h2v-1h1v2h1v1h-2v-1h-2v1h-2v-1h1zM19 13h2v1h-2zM25 13h1v1h-1zM24 14h1v1h-1zM27 14h1v3h-1v1h-2v1h-1v-2h2v-1h-1v-1h2zM6 15h2v1h-1v1h-2v1h-1v-2h2zM10 15h1v2h1v1h-1v1h1v1h-1v3h1v-2h2v1h-1v1h1v1h-3v1h-3v-1h-1v-1h1v-1h2v-1h-2v-1h-1v1h-1v1h-1v-1h-2v1h2v1h-3v3h-1v-4h1v-3h-1v-1h1v-1h1v3h1v-1h1v1h1v-1h-1v-1h2v1h2v-2h-1v-1h2zM1 16h1v1h-1zM15 16h1v1h-1zM29 16h1v2h-1v1h1v1h1v-1h-1v-1h3v-1h1v2h-1v1h-1v1h-1v2h2v1h-1v1h-2v-3h-2v-1h-2v1h-1v-2h1v-1h1v-1h1v-1h1zM7 17h1v1h-1zM14 17h1v3h-2v-1h1zM16 19h1v1h-1zM23 19h1v1h-1zM15 20h1v1h-1zM21 20h1v1h2v1h-3zM33 20h1v3h-1v-1h-1v-1h1zM7 21h1v1h-1zM6 22h1v1h-1zM14 22h1v1h-1zM16 22h1v1h1v1h-1v2h-1v-2h-1v-1h1zM18 22h2v2h-1v-1h-1zM24 22h1v1h-1zM27 22h1v1h-1zM21 23h1v1h-1zM23 23h1v1h-1zM26 23h1v1h-1zM3 24h3v1h2v1h-3v-1h-1v1h-1zM14 24h1v2h-1v1h3v-1h1v3h-1v-1h-1v2h-1v1h-1v3h-3v-1h-1v-1h2v1h1v-1h-1v-1h-1v-1h-1v2h-1v-4h1v1h1v-4h1v1h1v-1h1zM22 24h1v1h-1zM24 24h1v1h5v3h1v-2h1v1h1v2h-2v1h1v3h-3v-1h2v-1h-2v-1h-2v1h2v1h-4v-1h1v-1h-1v-1h-2v1h2v1h-1v3h-1v-1h-2v1h-3v-1h2v-2h1v1h2v-1h-2v-1h1v-2h-1v-1h-1v1h-1v-2h2v-1h1v1h1v2h1v-2h-1v-1h1zM33 24h1v3h-1v-1h-1v-1h1zM18 25h1v1h-1zM9 26h1v1h-1zM26 26v3h3v-3zM1 27h7v7h-7zM12 27v1h1v-1zM27 27h1v1h-1zM2 28v5h5v-5zM3 29h3v3h-3zM12 29v1h1v-1zM19 29h2v1h-2zM16 30h3v2h-1v-1h-2zM33 30h1v1h-1zM15 31h1v1h-1zM17 32h1v1h-1zM9 33h1v1h-1zM25 33h4v1h-4zM32 33h1v1h-1z"/></svg>