<svg xmlns="http://www.w3.org/2000/svg" viewBox="0 0 35 35"><path d="M1 1h7v7h-7zM9 1h6v2h-1v2h-2v-1h1v-1h-1v1h-1v-1h-2zM18 1h7v1h1v1h-2v-1h-1v1h-1v-1h-2v1h-1v-1h-1zM27 1h7v7h-7zM2 2v5h5v-5zM17 2h1v1h1v1h-1v1h-1zM28 2v5h5v-5zM3 3h3v3h-3zM20 3h2v6h1v1h-1v1h1v1h-2v-1h-2v-1h1v-1h1v-2h-1v-1h1v-2h-1zM29 3h3v3h-3zM9 4h1v1h-1zM15 4h1v4h-1v-1h-1v-2h1zM23 4h1v1h-1zM25 4h1v4h-1zM18 5h1v2h-1zM11 6h2v1h-1v1h-1zM9 7h1v2h-1zM13 7h1v5h1v-1h1v2h-2v1h-1v-2h-1v-1h1v-1h-1v-2h1zM17 7h1v1h-1zM19 7h1v1h-1zM23 7h1v1h-1zM18 8h1v2h-1v1h1v1h-2v-3h1zM24 8h1v4h-1zM1 9h1v1h1v-1h2v1h-1v1h-2v1h-1zM6 9h3v1h1v3h-1v-1h-2v-1h1v-1h-1v1h-1v2h3v1h-3v1h-2v1h-1v-2h1v-1h1v-1h-1v-1h1v-1h1zM10 9h1v1h-1zM15 9h1v1h-1zM27 9h1v1h1v1h1v-2h1v1h1v1h-1v3h-2v1h1v2h1v-1h1v2h-1v1h-1v2h-1v-1h-2v2h-2v-1h1v-2h-2v1h1v1h-2v-1h-1v-1h1v-1h1v-1h1v1h1v-1h-1v-1h2v-1h1v-2h-1v-1h1v-1h-1zM32 9h2v3h-1v3h-1v-4h1v-1h-1zM26 11h1v1h-1zM2 12h1v2h-1v2h-1v-3h1zM11 12h1v1h-1zM19 12h2v2h-1v2h3v-1h1v2h-1v1h-1v1h-1v-1h-2v-2h-1v2h-1v2h1v1h-1v2h-1v-1h-1v-2h1v-2h-1v-1h2v-1h-2v-1h2v-1h1v1h1zM25 12h1v3h-1zM29 12v1h1v-1zM10 13h1v1h1v1h-1v2h1v1h-1v1h-1v1h-1v1h-1v-1h-1v-1h2v-3h1v-1h-1v-1h1zM16 13h1v1h-1zM23 13h1v1h-1zM14 14h1v1h-1zM6 15h3v1h-2v1h1v1h-1v1h-1v2h2v1h-3v2h-1v-1h-3v-2h1v1h1v-1h-1v-1h2v1h1v-3h-3v2h-1v-3h4v-1h1zM12 15h2v1h1v1h-2v-1h-1zM28 16v3h1v-3zM12 18h1v1h-1zM18 18h1v2h-1zM33 18h1v1h-1zM13 19h1v2h-1v1h-2v-1h1v-1h1zM31 19h2v1h-2zM10 20h1v1h-1zM9 21h1v1h1v1h-2v2h2v-1h1v1h1v1h-2v1h1v1h-2v1h-1v-3h-2v-1h1v-1h-1v-1h1v-1h1zM19 21h4v1h-3v1h-1v1h-1v1h-1v-2h1v-1h1zM30 21h2v1h-1v1h-1zM33 21h1v3h-1v1h-1v-2h1zM14 22h1v2h-1zM23 22h2v1h2v-1h1v1h1v1h2v1h-1v1h1v1h-1v1h3v1h-1v1h-1v-1h-1v1h-1v2h1v2h-1v-1h-1v1h-1v-2h-1v1h-3v-3h1v-2h-1v1h-1v-1h-2v-2h1v1h4v-1h-2v-2h-1v-1h1zM12 23h1v1h-1zM2 24h2v1h-2zM5 24h2v1h-2zM13 24h1v1h-1zM15 24h1v1h-1zM19 24h2v1h-2zM27 24v1h1v-1zM1 25h1v1h-1zM4 25h1v1h-1zM14 25h1v1h-1zM16 25h1v1h1v-1h1v2h-3zM21 25h1v1h-1zM13 26h1v1h-1zM26 26v3h3v-3zM1 27h7v7h-7zM15 27h1v2h-1v1h1v2h-2v-1h-2v2h1v-1h1v1h1v1h-6v-1h1v-1h1v-1h-1v1h-1v-2h1v-1h1v1h3v-2h1zM27 27h1v1h-1zM2 28v5h5v-5zM12 28h1v1h-1zM17 28h1v1h-1zM3 29h3v3h-3zM16 29h1v1h-1zM18 29h1v1h1v-1h2v2h-1v2h-2v1h-3v-2h2zM33 29h1v2h-1zM26 30v1h2v-1zM30 30h1v1h-1zM19 31v1h1v-1zM24 31v1h1v-1zM31 31h1v1h-1zM33 32h1v1h-1zM22 33h1v1h-1zM31 33h1v1h-1z"/></svg>