<svg xmlns="http://www.w3.org/2000/svg" viewBox="0 0 35 35"><path d="M1 1h7v7h-7zM11 1h2v2h-1v1h1v1h-2v-2h-1v-1h1zM14 1h1v1h3v-1h4v2h1v-2h2v1h-1v3h1v-2h1v3h-2v2h-1v-1h-1v-2h1v-1h-2v-2h-2v1h1v1h-2v-1h-1v1h-1v-1h-1v1h-1zM27 1h7v7h-7zM2 2v5h5v-5zM28 2v5h5v-5zM3 3h3v3h-3zM9 3h1v6h-1zM29 3h3v3h-3zM15 4h1v1h-1zM17 4h1v1h-1zM13 5h2v1h-2zM16 5h1v1h2v-1h1v3h1v1h-1v1h1v-1h1v1h1v3h-1v-2h-2v1h-1v-2h-1v-1h1v-2h-1v1h-1v-1h-1v1h1v2h-5v-1h-1v-2h1v1h1v1h2v-3h1zM12 6h1v1h-1zM13 7h1v1h-1zM21 7h1v1h-1zM25 7h1v3h-1v-1h-1v-1h1zM22 8h1v1h-1zM1 9h1v3h-1zM3 9h5v1h-2v1h3v-1h1v-1h1v1h1v2h1v1h-1v3h-2v-1h1v-1h-1v-1h1v-2h-1v1h-1v2h1v1h-2v-1h-2v-1h2v-1h-2v1h-3zM23 9h1v1h-1zM27 9h5v4h-1v2h1v-2h1v1h1v1h-1v1h-1v1h-1v1h2v-1h1v2h-1v1h-1v1h-1v1h1v1h-2v-1h-1v1h-2v-1h1v-3h-1v-1h1v-1h1v-1h1v-2h-2v-1h1v-2h1v1h1v-1h-1v-1h-1v1h-2zM17 10h1v3h-1v1h2v2h-1v-1h-2v2h-1v1h-1v3h2v1h-1v1h-2v1h-1v-2h1v-1h-2v-2h1v-1h1v-5h1v3h1v-2h1v-1h-1v-1h1v-1h1zM24 10h1v1h-1zM33 10h1v1h-1zM13 11h1v1h-1zM25 11h2v1h-2zM1 13h2v1h-1v2h3v-1h1v1h1v1h1v1h-1v1h-1v-2h-1v2h1v1h1v1h1v1h-1v1h1v1h-1v1h-1v1h-1v-2h1v-2h-1v2h-1v-3h1v-1h-1v-1h-3v-1h1v-1h-1zM19 13h3v1h1v2h2v1h1v-2h1v-1h1v3h-1v1h-2v1h-1v-2h-3v-2h-1v-1h-1zM23 13h1v1h-1zM25 13h2v1h-1v1h-2v-1h1zM4 14h1v1h-1zM7 15h1v1h-1zM8 16h2v1h1v1h-2v-1h-1zM17 16h1v1h1v1h3v1h-3v1h1v1h-2v1h-1v-2h1v-1h-1zM19 16h1v1h-1zM8 18h1v2h-2v-1h1zM15 18h1v1h1v1h-2zM29 18v1h1v1h1v-1h-1v-1zM23 19h1v3h1v-2h1v-1h1v3h-1v1h-2v1h-1v-3h-2v-1h2zM33 20h1v3h-1v-1h-1v-1h1zM10 21h1v3h1v1h1v1h-1v1h-1v1h1v-1h1v-1h1v3h-1v1h-1v-1h-2v1h2v1h-2v1h-1v-4h1v-1h-1v-1h1v-2h-1v-2h1zM1 22h1v4h-1zM16 22h1v1h1v1h-1v2h-1v1h-1v-1h-1v-1h-1v-1h2v-1h1zM18 22h4v1h-2v1h-1v-1h-1zM26 23h1v1h-1zM32 23h1v1h-1zM3 24h1v2h-1zM20 24h3v1h-1v1h1v3h-1v-1h-1v-1h-1v1h-1v-2h2v-1h-1zM24 24h1v1h5v-1h2v1h-1v1h-1v2h1v-2h1v1h1v2h-2v1h3v1h-2v2h-3v-1h1v-1h-1v-1h-2v1h2v1h-1v1h-1v1h-4v-1h-2v1h-3v-1h2v-1h1v-1h-1v-1h-1v-1h3v1h1v1h-1v1h1v-1h1v2h2v-1h-1v-1h1v-1h-1v-1h-1v-3h-1v-1h1zM7 25h1v1h-1zM18 25h1v1h-1zM32 25h1v1h-1zM17 26h1v3h-1v-1h-1v-1h1zM26 26v3h3v-3zM33 26h1v1h-1zM1 27h7v7h-7zM27 27h1v1h-1zM2 28v5h5v-5zM15 28h1v2h-1zM3 29h3v3h-3zM23 29h1v1h-1zM13 30h1v1h-1zM16 30h3v2h-1v-1h-2zM24 30h1v1h-1zM11 32h1v1h-1zM13 32h2v1h1v1h-4v-1h1zM17 32h1v1h-1zM9 33h2v1h-2zM28 33h1v1h-1zM32 33h1v1h-1z"/></svg>