<svg xmlns="http://www.w3.org/2000/svg" viewBox="0 0 35 35"><path d="M1 1h7v7h-7zM11 1h1v2h-2v-1h1zM14 1h1v1h3v-1h4v2h1v-2h2v1h-1v3h-1v-1h-1v1h-1v-3h-2v1h1v1h-2v-1h-1v1h-1v-1h-1v1h-1zM27 1h7v7h-7zM2 2v5h5v-5zM28 2v5h5v-5zM3 3h3v3h-3zM9 3h1v1h1v1h-1v1h1v-1h1v-1h2v1h1v1h-1v3h-2v2h-2v-1h1v-1h-2zM25 3h1v2h-1zM29 3h3v3h-3zM15 4h1v1h-1zM17 4h1v1h-1zM16 5h1v1h2v-1h1v5h1v-1h1v1h1v1h-3v1h-1v-2h-1v-1h1v-2h-1v1h-1v-1h-1v1h1v2h-3v-1h1v-3h1zM22 5h1v1h1v2h-1v-1h-1v1h-1v-2h1zM24 5h1v1h-1zM12 6v2h1v-2zM25 6h1v4h-1v-1h-1v-1h1zM10 7v1h1v-1zM22 8h1v1h-1zM1 9h1v1h-1zM3 9h5v1h-3v3h-1v-1h-2v-2h1zM23 9h1v1h-1zM27 9h5v2h1v1h-1v1h-1v1h1v-1h1v1h1v1h-1v1h-1v1h-1v-2h-1v-1h-2v-1h1v-2h1v1h1v-1h-1v-1h-1v1h-1v2h-2v-1h-1v-1h2zM17 10h1v3h-1v1h2v2h-1v-1h-3v-1h1v-1h-1v-1h1v-1h1zM24 10h1v1h-1zM33 10h1v1h-1zM6 11h3v1h-2v1h1v1h-1v1h-2v1h-1v-1h-2v-2h2v1h2zM13 11h1v1h-1zM23 11h1v3h1v1h-2v1h1v1h-3v1h2v1h-4v1h1v1h-2v1h-1v-2h1v-1h-1v-3h1v1h1v1h1v-1h-1v-1h1v-1h1v1h1v-1h-1v-1h2v-1h-1v-1h1zM1 12h1v1h-1zM9 12h3v1h-1v2h-1v-2h-1zM12 13h1v1h1v1h1v1h1v3h-2v-1h-1v-1h1v-1h-1v1h-1v1h-1v-3h1zM19 13h2v1h-2zM8 14h1v1h-1zM27 14h1v3h-1v1h-2v-3h2zM1 15h1v1h1v1h-2zM7 15h1v1h-1zM5 16h2v1h-2zM8 16h1v4h-3v-1h2v-1h-1v-1h1zM29 16h1v2h-1v1h1v1h1v-1h-1v-1h3v-1h1v2h-1v1h-1v1h-1v2h2v1h-1v1h-2v-3h-2v-1h-3v-1h1v-1h1v-1h1v-1h1zM3 17h2v1h-1v1h-1v1h-1v-1h-1v-1h2zM5 18h1v1h-1zM12 18h1v1h-1zM24 18h1v1h-1zM10 19h2v1h3v2h2v1h1v1h-1v2h-1v-2h-1v1h-1v3h-1v-2h-1v-4h-2zM16 19h1v1h-1zM3 20h1v1h-1zM5 20h1v1h2v1h-2v1h-3v-1h1v-1h1zM21 20h2v1h-2zM33 20h1v3h-1v-1h-1v-1h1zM23 21h1v1h-1zM1 22h1v4h-1zM8 22h2v1h1v2h-1v-1h-3v1h-1v1h-1v-1h-1v-1h2v-1h2zM18 22h2v2h-1v-1h-1zM24 22h1v1h-1zM27 22h1v1h-1zM13 23v1h1v-1zM21 23h1v1h-1zM23 23h1v1h-1zM26 23h1v1h-1zM20 24h1v1h-1zM22 24h1v1h-1zM24 24h1v1h5v3h1v-2h1v1h1v2h-2v1h3v1h-2v2h-3v-1h2v-1h-2v-1h-2v1h2v1h-4v-1h1v-1h-1v-1h-1v1h1v1h-1v3h-1v-1h-1v-1h1v-1h-1v1h-1v-1h-1v-1h-1v-1h3v1h1v-1h-1v-1h-1v-1h-1v1h-1v-2h2v-1h1v1h1v1h1v-1h-1v-1h1zM33 24h1v1h-1zM7 25h2v1h-2zM18 25h1v1h-1zM9 26h1v1h-1zM15 26h1v1h1v-1h1v3h-1v-1h-2zM26 26v3h3v-3zM33 26h1v1h-1zM1 27h7v7h-7zM10 27h1v1h1v1h-2v1h1v2h1v1h1v-2h1v3h-5v-1h1v-1h-1v-4h1zM27 27h1v1h-1zM2 28v5h5v-5zM14 28h1v1h1v1h-1v1h-1v-1h-2v-1h2zM3 29h3v3h-3zM16 30h3v2h-1v-1h-2zM15 31h1v1h-1zM17 32h1v1h-1zM20 32h1v1h-1zM18 33h2v1h-2zM25 33h4v1h-4zM32 33h1v1h-1z"/></svg>