<svg xmlns="http://www.w3.org/2000/svg" viewBox="0 0 35 35"><path d="M1 1h7v7h-7zM9 1h4v2h-1v-1h-2v1h2v1h-1v2h-2v-1h1v-1h-1zM14 1h2v2h1v-2h3v1h1v1h1v-1h2v1h-1v2h1v1h-2v-2h-2v-1h-2v2h1v-1h1v1h1v1h-1v3h1v-3h1v4h-1v1h-3v-1h-1v-1h-1v-1h1v-1h-1v1h-1v-2h1v-1h-1v-1h-1zM27 1h7v7h-7zM2 2v5h5v-5zM28 2v5h5v-5zM3 3h3v3h-3zM25 3h1v3h-1zM29 3h3v3h-3zM12 4h1v1h-1zM13 5h2v1h-1v2h1v1h-1v1h-1v1h-1v-2h1v-2h-1v-1h1zM18 6v3h1v-3zM24 6h1v1h-1zM9 7h1v1h-1zM11 7h1v2h-2v-1h1zM23 7h1v1h-1zM25 7h1v2h1v1h-2v-1h-1v-1h1zM1 9h1v2h-1zM4 9h6v1h1v1h-1v1h1v1h-2v1h-2v1h-1v2h3v1h-2v1h2v1h-4v-1h-2v2h2v3h-2v-1h1v-1h-2v3h1v1h-2v-9h1v1h1v-2h1v2h1v-2h-1v-2h2v-1h-2v1h-1v-1h-2v-1h2v-2h1v1h2v1h1v1h1v-1h1v-2h-2v1h-1v-1h-2zM15 9h1v1h1v1h1v1h-2v-1h-1v3h-1v2h1v3h1v-2h1v-1h1v2h-1v1h1v-1h3v-1h1v3h-1v3h-1v-1h-1v-1h1v-1h-2v2h-1v-1h-2v1h1v1h-2v-1h-1v-2h1v-1h-1v1h-1v-1h-1v-1h1v-1h1v-1h-1v1h-3v-1h1v-1h2v-2h1v-2h1v-1h1zM29 9h1v1h1v-1h3v1h-2v3h-1v-1h-2zM23 10h2v1h3v1h-3v1h1v1h1v1h-3v1h-4v-1h3v-1h1v-1h-1v-1h1v-1h-1zM7 11h1v1h-1zM21 11h2v1h-2zM33 11h1v1h-1zM19 12h1v1h-1zM28 12h1v3h-1v-1h-1v-1h1zM16 13h1v1h-1zM18 13h1v1h1v1h-1v1h-1zM33 13h1v1h-1zM1 14h2v2h-1v-1h-1zM15 14h1v1h-1zM30 14h1v1h1v2h-2v-1h-1v-1h1zM7 15h2v1h-2zM16 15h1v1h-1zM27 15h1v1h-1zM19 16h1v1h-1zM24 16h1v1h-1zM26 16h1v1h1v-1h1v1h1v2h-1v-1h-1v1h1v1h-1v1h-1v-3h-2v-1h1zM33 16h1v1h-1zM23 18h1v1h1v1h-2zM31 18h3v2h-1v-1h-1v1h1v1h-2v1h1v1h-1v1h-1v-1h-1v-1h1v-1h-1v-1h1v-1h1zM25 20h1v3h-1v1h-1v1h-1v-2h-1v-1h3zM7 21h2v1h-2zM10 21h2v3h-2v-1h1v-1h-1zM28 21h1v1h-1zM33 21h1v1h-1zM9 22h1v1h-1zM18 22h1v1h1v1h-1v1h-1zM6 23h2v1h-2zM21 23h1v1h-1zM26 23h2v1h-2zM32 23h2v1h-1v1h-2v-1h1zM5 24h1v1h2v1h-4v-1h1zM12 24h2v2h-2zM15 24h2v1h-2zM20 24h1v2h-1zM28 24h2v4h1v-2h2v1h-1v1h2v5h-4v1h-2v-4h-1v1h-1v-1h-2v1h-1v-2h1v-3h1v-1h3zM17 25h1v1h2v1h-1v1h1v1h-1v1h-1v1h-1v-2h1v-2h-1v2h-1v2h-1v1h-1v-2h1v-1h-2v3h-1v-1h-1v1h-1v-1h-1v-5h2v4h1v-2h4v-1h-1v-1h2zM33 25h1v1h-1zM22 26h1v1h-1zM26 26v3h3v-3zM1 27h7v7h-7zM20 27h2v2h-1v-1h-1zM27 27h1v1h-1zM2 28v5h5v-5zM3 29h3v3h-3zM20 29h1v1h1v1h-1v1h-1v-1h-1v-1h1zM30 29v1h-1v1h1v1h1v-2h2v-1zM16 31h1v1h-1zM24 31h2v1h-2zM13 32h1v1h1v1h-2zM23 32h1v1h-1zM9 33h3v1h-3zM16 33h5v1h-5zM24 33h2v1h-2z"/></svg>