<svg xmlns="http://www.w3.org/2000/svg" viewBox="0 0 35 35"><path d="M1 1h7v7h-7zM9 1h1v2h2v1h-1v1h1v1h1v1h-1v1h1v3h-1v-1h-1v1h1v1h-2v-2h-3v1h1v1h-2v-2h-2v-1h7v-2h-1v-1h-1v-1h1v-1h-1zM11 1h1v1h-1zM14 1h2v2h1v-2h3v1h1v1h1v-1h2v1h-1v2h1v1h-2v-1h-1v-1h-1v-1h-1v-1h-1v3h1v1h-1v3h1v-3h2v1h-1v3h1v1h-3v-1h-1v-1h-1v-1h1v-1h-1v1h-1v-2h1v-1h-1v-1h-1zM27 1h7v7h-7zM2 2v5h5v-5zM28 2v5h5v-5zM3 3h3v3h-3zM25 3h1v3h-1zM29 3h3v3h-3zM12 4h2v1h1v1h-2v-1h-1zM19 4h1v1h-1zM24 6h1v1h-1zM9 7h1v1h-1zM13 7h1v1h-1zM21 7h1v1h-1zM23 7h1v1h-1zM25 7h1v2h1v1h-2v-1h-1v-1h1zM14 8h1v1h-1zM1 9h1v1h-1zM15 9h1v1h1v1h1v1h-2v-1h-1v3h-1v-1h-2v-1h1v-1h1v-1h1zM21 9h1v1h-1zM29 9h1v1h1v-1h3v1h-2v3h-1v-1h-2zM2 10h2v1h1v2h-1v-1h-1v1h-1v1h-1v-3h1zM23 10h2v1h3v1h-3v1h1v1h1v1h-3v-2h-1v-1h1v-1h-1zM21 11h1v1h-1zM33 11h1v1h-1zM19 12h1v1h-1zM28 12h1v3h-1v-1h-1v-1h1zM6 13h2v1h-2zM9 13h1v1h-1zM11 13h1v1h-1zM16 13h1v1h-1zM18 13h1v1h2v-1h1v2h-1v1h-1v-1h-1v1h-1zM33 13h1v1h-1zM3 14h2v2h-1v-1h-1zM10 14h1v1h-1zM13 14h1v1h1v-1h1v1h1v1h-2v1h2v-1h1v2h-1v1h1v-1h3v-1h1v2h1v1h-2v1h1v1h-1v1h-1v-1h-1v-1h1v-1h-2v2h-1v-1h-1v-3h-1v1h-1v-1h-1v-1h1v-1h-1v1h-1v-1h-1v-1h2zM30 14h1v1h1v2h-2v-1h-1v-1h1zM2 15h1v1h-1zM7 15h1v1h-1zM22 15h2v1h-2zM27 15h1v1h-1zM5 16h1v3h3v1h-2v1h-1v-1h-2v-1h1zM8 16h3v1h1v1h1v1h-2v1h-1v-2h-3v-1h1zM19 16h1v1h-1zM24 16h1v1h-1zM26 16h1v1h1v-1h1v1h1v2h-1v-1h-1v1h1v1h-1v1h-1v-3h-2v-1h1zM33 16h1v1h-1zM1 17h2v1h1v1h-3zM23 18h1v1h-1zM31 18h3v2h-1v-1h-1v1h1v1h-2v1h1v1h-1v1h-1v-1h-1v-1h1v-1h-1v-1h1v-1h1zM13 19h1v1h1v1h-2zM24 19h1v1h-1zM2 20h2v1h1v1h1v1h-2v1h-1v-3h-1zM23 20h1v1h-1zM25 20h1v3h-1v1h-1v1h-1v-2h1v-1h1zM1 21h1v4h1v1h-2zM7 21h2v1h-2zM10 21h1v1h1v2h1v2h-1v1h-2v1h2v1h-1v2h-2v-5h1v-1h1v-1h-1v1h-2v-1h-2v-1h4zM12 21h1v1h-1zM15 21h1v2h-1v1h-2v-1h1v-1h1zM28 21h1v1h-1zM33 21h1v1h-1zM18 22h1v1h1v1h-1v1h-1zM22 22h1v1h-1zM21 23h1v2h-1zM26 23h2v1h-2zM32 23h2v3h-1v1h-1v1h2v5h-4v1h-2v-4h-1v1h-1v-1h-3v-1h1v-1h-1v-1h1v-1h1v-1h3v-1h2v4h1v-2h1v-1h-1v-1h1zM5 24h1v1h2v1h-4v-1h1zM16 24h1v1h-1zM14 25h2v1h1v-1h1v1h2v1h-1v1h1v1h-1v1h-1v1h-1v-2h1v-2h-1v2h-2v1h-1v1h3v1h-2v1h-1v-1h-1v1h-1v-4h2v-1h2v-1h-1v-1h-1zM26 26v3h3v-3zM1 27h7v7h-7zM12 27h1v1h-1zM20 27h2v4h-1v3h-6v-1h5v-2h-1v-1h1v-1h1v-1h-1zM27 27h1v1h-1zM2 28v5h5v-5zM3 29h3v3h-3zM30 29v1h-1v1h1v1h1v-2h2v-1zM24 31h2v1h-2zM10 32h1v2h-2v-1h1zM23 32h1v1h-1zM13 33h1v1h-1zM24 33h2v1h-2z"/></svg>