<svg xmlns="http://www.w3.org/2000/svg" viewBox="0 0 35 35"><path d="M1 1h7v7h-7zM10 1h5v1h3v-1h4v1h1v1h1v2h1v1h-1v2h-1v-1h-1v1h-1v-2h1v-1h1v-1h-1v1h-1v-3h-2v1h1v1h-2v-1h-1v1h-1v-1h-1v1h-1v-2h-2v2h-1v1h1v1h-1v1h-1v1h1v1h-2v-6h2v-1h-1zM23 1h2v1h-2zM27 1h7v7h-7zM2 2v5h5v-5zM28 2v5h5v-5zM3 3h3v3h-3zM25 3h1v2h-1zM29 3h3v3h-3zM12 4h2v1h-2zM15 4h1v1h-1zM17 4h1v1h-1zM14 5h1v1h-1zM16 5h1v1h2v-1h1v5h1v-1h1v1h1v1h1v1h-1v1h-1v-2h-2v1h-1v-2h-1v-1h1v-2h-1v1h-1v-1h-1v1h1v2h-3v-1h1v-3h1zM12 6h1v1h-1zM11 7h1v1h-1zM13 7h1v1h-1zM25 7h1v1h-1zM12 8h1v2h-2v-1h1zM22 8h1v1h-1zM24 8h1v1h-1zM1 9h1v1h1v-1h5v1h-1v1h-1v-1h-2v2h-1v-1h-1v3h-1zM23 9h1v1h-1zM25 9h1v1h-1zM27 9h5v2h1v1h-1v1h-1v1h1v-1h1v1h1v1h-1v1h-1v1h-1v-2h-1v-1h-2v-1h1v-2h1v1h1v-1h-1v-1h-1v1h-1v2h-2v-1h-1v-1h2zM8 10h3v1h-2v1h1v1h-1v1h-2v1h1v1h-1v1h-1v1h-1v-2h-1v-1h1v-1h1v-1h2v-1h-1v-1h1zM13 10h1v1h-1zM17 10h1v3h-1v1h2v2h-1v-1h-2v1h-1v1h-1v-3h2v-1h-1v-1h1v-1h1zM24 10h1v1h-1zM33 10h1v1h-1zM11 11h1v2h-1zM4 12h1v2h-1zM10 13h1v1h-1zM13 13h1v1h-1zM19 13h2v1h-2zM23 13h1v1h-1zM9 14h1v1h-1zM11 14h1v1h1v1h-2zM21 14h2v2h3v-1h1v-1h1v3h-1v1h-2v-1h-4v1h2v1h-4v1h1v1h-2v1h-1v-2h1v-1h-1v-3h1v1h1v1h1v-1h-1v-1h1v-1h1v1h1v-1h-1zM24 14h1v1h-1zM2 15h1v1h-1zM9 16h2v1h-2zM29 16h1v2h-1v1h1v1h1v-1h-1v-1h3v-1h1v2h-1v1h-1v1h-1v2h2v1h-1v1h-2v-3h-2v-1h-3v-1h1v-1h1v-1h1v-1h1zM2 17h1v2h-2v-1h1zM7 17h1v1h-1zM11 17h1v1h1v-1h1v3h-1v-1h-1v1h-2v1h-1v2h1v-1h1v-1h5v1h1v1h1v1h-1v2h-1v-1h-1v1h1v1h-2v-2h-2v-2h-1v2h1v1h-2v1h-1v-1h-2v-1h1v-1h-1v1h-1v-3h1v1h1v-1h-1v-1h1v-1h-1v-1h1v-1h2v1h1zM4 18h1v1h-1zM6 18h1v1h-1zM24 18h1v1h-1zM15 19h2v1h-2zM1 20h1v1h-1zM4 20h2v2h-1v4h-2v-1h1v-3h-2v-1h2zM21 20h3v2h-1v-1h-1v1h-1zM33 20h1v3h-1v-1h-1v-1h1zM1 22h1v4h-1zM13 22v1h1v-1zM18 22h2v2h-1v-1h-1zM24 22h1v1h-1zM27 22h1v1h-1zM21 23h1v1h-1zM23 23h1v1h-1zM26 23h1v1h-1zM9 24v1h1v-1zM22 24h1v1h-1zM24 24h1v1h5v3h1v-2h1v1h1v2h-2v1h3v1h-2v2h-3v-1h2v-1h-2v-1h-2v1h2v1h-4v-1h1v-1h-1v-1h-1v-3h-1v-1h1zM18 25h1v1h-1zM21 25h1v2h1v4h-2v-1h1v-2h-1v-1h-1v1h-1v-2h2zM12 26h1v1h-1zM17 26h1v3h-1v-1h-1v-1h1zM26 26v3h3v-3zM33 26h1v1h-1zM1 27h7v7h-7zM10 27h1v1h2v2h1v1h-2v-2h-1v1h-1v2h-1v-4h1zM13 27h1v1h-1zM27 27h1v1h-1zM2 28v5h5v-5zM3 29h3v3h-3zM15 29h1v1h-1zM19 29h2v1h-2zM16 30h3v2h-1v-1h-2zM24 30h1v1h-1zM11 31h1v1h1v2h-1v-1h-1zM14 31h2v2h-1v-1h-1zM20 31h1v1h2v-1h1v3h-1v-1h-2v1h-3v-1h2zM17 32h1v1h-1zM9 33h1v1h-1zM25 33h4v1h-4zM32 33h1v1h-1z"/></svg>