<svg xmlns="http://www.w3.org/2000/svg" viewBox="0 0 35 35"><path d="M1 1h7v7h-7zM9 1h2v1h1v-1h1v1h1v1h-3v1h-2zM15 1h1v1h-1zM17 1h3v1h1v1h1v-1h2v1h-1v2h1v1h-2v-1h-1v-1h-1v-1h-1v-1h-1v2h-1v2h-1v2h-1v-2h-1v-1h2v-2h1zM27 1h7v7h-7zM2 2v5h5v-5zM28 2v5h5v-5zM3 3h3v3h-3zM25 3h1v3h-1zM29 3h3v3h-3zM11 4h2v2h1v2h-1v-1h-1v1h1v1h-2v-2h-1v-1h2v-1h-1zM18 4h2v1h1v1h-1v2h1v1h1v1h-1v1h-2v2h-1v-1h-2v1h2v1h2v1h-1v1h-2v-2h-2v1h1v1h1v1h-2v-1h-1v1h-1v1h-1v-1h-1v-3h1v1h2v-1h-1v-3h1v2h1v-4h4v-3h-1zM9 5h1v1h-1zM21 6h1v2h-1zM24 6h1v1h-1zM9 7h1v1h-1zM17 7h1v1h-1zM23 7h1v1h-1zM25 7h1v2h1v1h-2v-1h-1v-1h1zM14 8h1v1h-1zM1 9h1v1h2v1h1v-1h-1v-1h7v1h2v1h-3v-1h-1v1h1v1h2v1h-1v1h-1v-1h-2v-1h-1v-1h1v-1h-2v2h1v1h-1v1h-1v-1h-2v-1h-2zM29 9h1v1h1v-1h3v1h-2v3h-1v-1h-2zM17 10v1h1v-1zM23 10h2v1h3v1h-3v1h1v1h1v1h-3v-2h-1v-1h-2v-1h2zM33 11h1v1h-1zM28 12h1v3h-1v-1h-1v-1h1zM1 13h2v1h-1v1h-1zM7 13h1v1h-1zM21 13h1v1h-1zM33 13h1v1h-1zM3 14h2v1h1v1h-2v2h-2v-2h1zM6 14h1v1h-1zM30 14h1v1h1v2h-2v-1h-1v-1h1zM7 15h1v1h-1zM9 15h1v1h-1zM20 15h1v1h1v3h1v1h-2v1h1v1h-1v1h-1v-3h-2v1h1v2h1v1h-1v1h-1v-1h-4v-1h-1v-2h1v1h1v1h2v-2h-1v-1h-2v-1h2v-1h1v1h2v-1h2v-1h-2v-1h1zM22 15h2v1h-2zM27 15h1v1h-1zM8 16h1v2h-3v-1h2zM24 16h1v1h-1zM26 16h1v1h1v-1h1v1h1v2h-1v-1h-1v1h1v1h-1v1h-1v-3h-2v-1h1zM33 16h1v1h-1zM10 17h1v1h-1zM17 17h1v1h-1zM1 18h1v1h-1zM4 18h2v1h2v1h-1v1h-1v-1h-1v1h1v1h-1v1h-1v1h-1v-1h-1v2h2v1h-3v-4h1v-1h1v-1h1zM9 18h1v1h-1zM11 18h1v2h1v1h-3v-2h1zM13 18h1v1h-1zM23 18h1v1h-1zM31 18h3v2h-1v-1h-1v1h1v1h-2v1h1v1h-1v1h-1v-1h-1v-1h1v-1h-1v-1h1v-1h1zM24 19h1v1h-1zM23 20h1v1h-1zM25 20h1v3h-1v1h-1v1h-1v-2h1v-1h1zM7 21h1v1h-1zM9 21h1v1h-1zM15 21h1v1h-1zM28 21h1v1h-1zM33 21h1v1h-1zM8 22h1v1h-1zM10 22h1v1h-1zM22 22h1v1h-1zM7 23h1v1h-1zM9 23h1v2h-2v-1h1zM26 23h2v1h-2zM32 23h2v2h-1v-1h-1zM4 24h1v1h-1zM6 24h1v1h-1zM11 24h1v2h-2v-1h1zM13 24h1v1h2v1h-3zM28 24h2v4h1v-2h1v-1h1v2h-1v1h2v5h-4v1h-2v-4h-1v1h-1v-1h-3v-2h-1v4h-1v2h-6v-1h2v-1h1v1h2v-2h-1v-1h1v-1h1v-1h-1v-1h2v-1h1v1h1v-1h1v-1h3zM31 24h1v1h-1zM5 25h1v1h-1zM7 25h1v1h-1zM17 25h1v2h-1v2h-1v-3h1zM20 25h1v1h-1zM9 26h1v1h1v1h-1v1h1v1h1v1h2v3h-1v-1h-1v-1h-1v1h-1v-2h-1zM19 26h1v1h-1zM26 26v3h3v-3zM1 27h7v7h-7zM12 27h1v1h-1zM27 27h1v1h-1zM2 28v5h5v-5zM11 28h1v1h-1zM14 28h1v1h1v1h-4v-1h2zM19 28h1v1h-1zM3 29h3v3h-3zM30 29v1h-1v1h1v1h1v-2h2v-1zM16 30h1v2h-2v-1h1zM24 31h2v1h-2zM23 32h1v1h-1zM9 33h1v1h-1zM24 33h2v1h-2z"/></svg>