<svg xmlns="http://www.w3.org/2000/svg" viewBox="0 0 35 35"><path d="M1 1h7v7h-7zM9 1h1v1h1v-1h1v1h1v1h1v-2h2v2h1v-2h3v1h1v1h2v2h1v1h-2v-1h-1v-1h-1v-1h-1v-1h-1v3h1v1h-1v3h1v-3h2v1h-1v3h1v1h-3v-1h-1v-1h-1v-1h1v-1h-1v1h-1v-2h1v-1h-1v-1h-1v1h1v1h-2v-2h-2v-1h-1v1h-1zM22 1h1v1h-1zM27 1h7v7h-7zM2 2v5h5v-5zM28 2v5h5v-5zM3 3h3v3h-3zM25 3h1v2h-1zM29 3h3v3h-3zM10 4h1v1h-1zM19 4h1v1h-1zM9 5h1v1h-1zM11 5h1v1h1v1h-1v1h1v1h-1v1h-2v2h1v-1h3v-1h1v-1h1v1h1v1h1v1h-2v-1h-1v3h1v1h1v1h-2v-1h-1v-1h-2v-1h1v-1h-1v1h-2v2h1v1h-1v1h-1v-1h-3v-2h1v1h1v-1h-1v-1h1v-1h-3v-1h4v-1h-5v-1h7v-2h-1v-1h1zM24 6h1v1h-1zM9 7h1v1h-1zM13 7h1v1h-1zM21 7h1v1h-1zM23 7h1v1h-1zM25 7h1v1h-1zM14 8h1v1h-1zM24 8h1v1h2v1h-2v1h2v1h2v3h-1v-1h-1v1h-1v-1h-1v1h-1v1h-2v3h1v1h-2v2h-2v-1h1v-1h-2v2h-1v-1h-1v2h-2v-1h1v-1h-1v-2h1v1h1v-1h-1v-1h1v-1h1v-1h1v2h-1v1h1v-1h3v-2h-1v-1h-1v1h-1v-3h1v1h3v1h1v-1h1v-3h-1v-1h1zM1 9h1v1h2v1h-1v1h-1v-1h-1zM21 9h1v1h-1zM29 9h1v1h1v-1h3v1h-2v1h2v1h-2v1h-1v-1h-2zM21 11h1v1h-1zM3 12h1v1h-1zM19 12h1v1h-1zM25 12v1h1v-1zM4 13h2v1h-2zM16 13h1v1h-1zM33 13h1v1h-1zM1 14h2v1h2v1h1v2h1v1h-1v1h-1v-3h-1v1h-1v-1h-1v-1h-1zM11 14h1v1h-1zM30 14h2v3h-1v-2h-1zM12 15h1v1h-1zM25 15h1v1h-1zM27 15h1v1h-1zM29 15h1v1h-1zM11 16h1v3h-1v1h-1v2h-1v2h1v1h-1v1h-2v-1h1v-1h-1v-1h1v-1h-1v-1h1v-1h-1v-1h1v-1h-1v-1h2v1h2zM13 16h1v1h-1zM19 16h1v1h-1zM26 16h1v1h1v-1h1v1h2v1h-1v1h-1v-1h-1v1h-1v-1h-3v-1h2zM33 16h1v1h-1zM1 17h1v1h-1zM14 17h1v1h-1zM2 18h1v2h2v4h-1v-1h-2v2h1v-1h1v1h1v-1h2v1h-1v1h-5v-4h1v-1h-1v-1h1zM23 18h1v1h-1zM31 18h3v2h-1v-1h-1v1h1v1h-2v2h-3v-2h1v1h1v-1h-1v-1h1v-1h1zM24 19h1v1h-1zM28 19h1v1h-1zM6 20h1v1h-1zM11 20h2v1h1v1h-2v-1h-1zM25 20h1v1h-1zM22 21h2v1h1v2h-1v1h-1v-2h-1zM26 21h1v1h-1zM33 21h1v1h-1zM6 22h1v1h-1zM18 22h1v1h3v2h-2v-1h-1v1h-1zM10 23h1v1h-1zM26 23h2v1h-2zM31 23h3v2h-3zM11 24h3v1h-3zM16 24h1v1h-1zM28 24h2v1h1v1h-1v2h1v-2h2v1h-1v1h2v5h-4v1h-3v-1h-1v-1h2v-2h-1v1h-1v-1h-2v1h-1v-1h-1v-1h-1v-1h-1v-1h2v1h2v-2h1v-1h3zM10 25h1v1h-1zM15 25h1v1h-1zM17 25h1v1h2v1h-1v1h1v1h-1v1h-1v1h-1v-2h1v-2h-1v2h-1v1h-1v-1h-3v-3h1v2h3v-2h1zM9 26h1v1h1v1h-1v1h2v1h-2v1h-1zM14 26h1v1h-1zM22 26h1v1h-1zM26 26v3h3v-3zM1 27h7v7h-7zM27 27h1v1h-1zM2 28v5h5v-5zM3 29h3v3h-3zM20 29h1v1h-1zM30 29v1h-1v1h2v-1h1v1h1v-2zM12 30h1v2h-1zM19 30h1v1h-1zM10 31h1v2h-1zM14 31h3v1h-2v1h-1zM20 31h1v1h1v1h-1v1h-6v-1h5zM24 31h2v1h-2zM23 32h1v1h-1zM9 33h1v1h-1zM13 33h1v1h-1zM25 33h1v1h-1z"/></svg>